ply
format ascii 1.0
comment VCGLIB generated
element vertex 149
property float x
property float y
property float z
element face 264
property list uchar int vertex_indices
end_header
-10.51066 -8.588368 -14.3328 
-9.791757 -7.987797 -13.76713 
-9.795932 -8.228018 -13.51953 
-10.49511 -8.288094 -14.39083 
-10.53036 -8.648443 -14.0272 
-10.36973 -8.228018 -2.792247 
-10.4525 -8.648443 8.190926 
-9.748025 -8.167969 7.882279 
-10.15538 0.4804743 -13.80237 
-10.49511 9.249019 -14.39083 
-9.791757 9.008793 -13.76713 
-10.51066 9.549317 -14.3328 
-10.51483 9.729493 -14.08522 
-9.795907 9.188969 -13.51953 
-10.36973 9.188969 -2.792247 
-10.4525 9.609367 8.190926 
-9.732475 9.188969 7.824278 
-10.39865 9.489244 8.454076 
-9.7211 8.948719 8.01385 
-10.42975 9.128893 8.5701 
-10.1158 0.4804743 8.094625 
-10.4142 -8.288094 8.512075 
-9.73665 -7.867672 8.071875 
-10.45668 -8.528318 8.438525 
-10.42504 -8.588368 14.35382 
-10.42089 -8.708493 14.10625 
-10.44223 -8.708493 9.312875 
-10.46915 9.729493 9.1813 
-10.465 9.609367 8.933725 
-10.465 9.369143 8.933725 
-10.43644 9.729493 14.16425 
-10.44059 9.609367 14.41185 
-10.47169 9.369143 14.52787 
-10.39812 -2.402349 14.4854 
-10.39145 -2.402349 8.89125 
-10.39145 -8.288094 8.89125 
-10.39812 -8.348144 14.4854 
-10.42253 -8.588368 9.007275 
10.67933 6.546372 -8.71715 
10.92692 6.486322 -8.712981 
11.01452 6.486322 8.595769 
-1.120203 7.867671 -8.76995 
10.76692 6.546372 8.591599 
-1.079223 7.867671 8.712825 
-5.570179 -8.828618 -14.43908 
10.91555 -5.405272 -8.902556 
10.94662 -5.165047 -9.018581 
-5.597104 -8.468268 -14.57065 
-5.597104 9.188969 -14.57065 
10.94662 6.186022 -9.018581 
10.91555 6.426271 -8.902556 
-5.570179 9.669417 -14.43908 
10.92692 -5.525397 -8.712981 
-5.605429 -8.948719 -14.07548 
6.303421 -6.486322 -8.3974 
-5.576579 -9.008794 -12.32677 
6.341353 -6.486322 8.4006 
11.01452 -5.525397 8.595769 
-5.495947 -8.948719 14.05798 
-5.524822 -9.008794 12.30927 
11.01037 6.426271 8.843344 
-5.531197 9.669417 14.4216 
-5.495947 9.789544 14.05798 
10.97927 6.186022 8.959369 
-5.519823 9.309068 14.61118 
-5.519823 -8.468268 14.61118 
10.97927 -5.165047 8.959369 
11.01037 -5.405272 8.843344 
-5.531197 -8.828618 14.4216 
-6.263422 -10.63037 12.0492 
6.082378 -10.63037 8.20685 
5.993646 -10.63037 -8.169525 
-6.323529 -10.63037 -12.09167 
-9.236632 -10.63037 -12.12613 
-9.207619 -10.63037 12.13078 
-5.562953 9.789544 -14.00192 
-10.54375 0.5405243 -2.838872 
-6.283147 -9.789544 12.3548 
-9.495607 -9.729493 -12.31985 
-9.416894 -9.729493 12.44778 
-6.331554 -9.369143 -15.07832 
-6.311829 -8.648443 -15.38395 
-6.270948 10.33007 15.09387 
-10.56912 10.33007 15.12355 
-10.51414 10.57032 14.45433 
-6.273997 10.63037 14.4091 
-10.5727 10.57032 8.407451 
-10.61113 10.57032 -14.4219 
-6.328504 10.57032 -14.39357 
-6.331554 10.33007 -15.07832 
-10.61418 10.33007 -15.10668 
-6.328504 -9.609368 -14.39357 
-6.319354 -9.789544 -12.33928 
-6.273997 -9.609368 14.4091 
-6.270948 -9.369143 15.09387 
-6.290647 9.609367 15.39947 
-6.290647 -8.648443 15.39947 
-6.369853 9.609367 -15.39947 
-10.51527 9.609367 15.38667 
-10.51527 -8.648443 15.38667 
-10.56912 -9.309068 15.12355 
-10.51414 -9.609368 14.45433 
-10.53022 -9.609368 8.481001 
-10.61113 -9.609368 -14.4219 
-10.61418 -9.309068 -15.10668 
-10.61003 -8.648443 -15.35428 
-10.61003 9.609367 -15.35428 
-10.75119 -8.288094 12.09025 
-10.75119 -7.927722 12.09025 
-8.902019 -7.927722 12.1505 
-8.902019 -8.348144 12.1505 
-8.955869 -8.648443 11.88735 
-10.74702 -8.528318 11.84265 
-10.45279 -8.167969 11.67278 
-10.77812 -7.987797 11.95868 
-10.77812 -8.228018 11.95868 
-10.80504 -8.468268 11.8271 
-10.80087 -8.468268 11.57952 
-10.81224 -8.288094 11.38993 
-10.75424 -8.047843 11.40548 
-10.78532 -7.807621 11.5215 
-10.78949 -7.807621 11.7691 
-8.905069 -8.648443 11.46573 
-11.01319 7.387197 11.21173 
-10.97907 7.567371 11.78048 
-10.97184 5.885746 12.21766 
-11.02154 5.705571 11.70693 
-10.57604 7.447272 11.20452 
-10.61544 7.627447 11.81573 
-10.58437 5.645497 11.6997 
-10.55022 5.825671 12.26845 
-10.57604 1.141099 11.20452 
-10.55744 1.321299 11.83127 
-10.97907 1.261224 11.78048 
-11.02874 1.141099 11.26976 
-11.02154 -0.540525 11.70693 
-10.58437 -0.6005745 11.6997 
-10.98739 -0.4204003 12.27568 
-10.56577 -0.4204003 12.32645 
11.02875 1.981924 -0.04307826 
-10.74702 -7.747547 11.84265 
-8.940319 -7.627447 11.82935 
-10.76977 -7.747547 11.4635 
-8.905069 -7.627447 11.46573 
-10.78117 -7.987797 11.2739 
-8.958894 -7.927722 11.20257 
-10.78117 -8.348144 11.2739 
-8.943369 -8.348144 11.14458 
-10.78532 -8.528318 11.5215 
3 0 2 1 
3 0 1 3 
3 2 0 4 
3 4 5 2 
3 4 6 5 
3 5 6 7 
3 3 1 8 
3 3 8 9 
3 9 8 10 
3 10 11 9 
3 10 12 11 
3 12 10 13 
3 14 12 13 
3 15 12 14 
3 15 14 16 
3 16 17 15 
3 17 16 18 
3 18 19 17 
3 19 18 20 
3 19 20 21 
3 21 20 22 
3 22 23 21 
3 23 22 7 
3 7 6 23 
3 24 26 25 
3 17 27 15 
3 27 17 28 
3 17 29 28 
3 29 17 19 
3 28 30 27 
3 30 28 31 
3 29 31 28 
3 31 29 32 
3 29 33 32 
3 33 29 34 
3 29 19 21 
3 29 21 34 
3 34 21 35 
3 35 33 34 
3 33 35 36 
3 35 24 36 
3 24 35 37 
3 37 6 26 
3 6 37 23 
3 37 21 23 
3 21 37 35 
3 26 24 37 
3 38 40 39 
3 38 41 40 
3 40 41 42 
3 42 41 43 
3 44 46 45 
3 46 44 47 
3 48 46 47 
3 46 48 49 
3 48 50 49 
3 50 48 51 
3 52 44 45 
3 44 52 53 
3 54 53 52 
3 54 55 53 
3 56 54 52 
3 56 52 57 
3 58 56 57 
3 56 58 59 
3 42 61 60 
3 42 62 61 
3 43 62 42 
3 42 60 40 
3 61 63 60 
3 63 61 64 
3 65 63 64 
3 63 65 66 
3 65 67 66 
3 67 65 68 
3 69 71 70 
3 71 69 72 
3 69 73 72 
3 73 69 74 
3 75 43 41 
3 43 75 62 
3 50 51 38 
3 38 51 75 
3 75 41 38 
3 50 38 39 
3 68 57 67 
3 57 68 58 
3 7 22 20 
3 7 20 76 
3 7 76 5 
3 8 5 76 
3 1 5 8 
3 1 2 5 
3 10 8 13 
3 13 8 14 
3 14 8 76 
3 18 14 76 
3 18 16 14 
3 70 77 69 
3 77 70 59 
3 70 56 59 
3 78 74 79 
3 74 78 73 
3 80 47 44 
3 47 80 81 
3 82 84 83 
3 84 82 85 
3 86 84 85 
3 85 87 86 
3 87 85 88 
3 89 87 88 
3 87 89 90 
3 18 76 20 
3 53 80 44 
3 80 53 91 
3 53 92 91 
3 92 53 55 
3 58 77 59 
3 77 58 93 
3 68 93 58 
3 93 68 94 
3 62 82 61 
3 82 62 85 
3 73 92 72 
3 92 73 78 
3 82 64 61 
3 64 82 95 
3 95 65 64 
3 65 95 96 
3 94 65 96 
3 65 94 68 
3 48 89 51 
3 89 48 97 
3 48 81 97 
3 81 48 47 
3 89 75 51 
3 75 89 88 
3 88 62 75 
3 62 88 85 
3 32 83 31 
3 83 32 98 
3 33 98 32 
3 36 98 33 
3 36 99 98 
3 24 99 36 
3 99 24 100 
3 24 101 100 
3 101 24 25 
3 26 101 25 
3 101 26 102 
3 102 26 6 
3 6 103 102 
3 103 6 4 
3 0 103 4 
3 103 0 104 
3 0 105 104 
3 105 0 3 
3 3 106 105 
3 106 3 9 
3 9 90 106 
3 90 9 11 
3 12 90 11 
3 84 27 30 
3 27 84 86 
3 86 15 27 
3 86 12 15 
3 12 86 87 
3 90 12 87 
3 89 106 90 
3 106 89 97 
3 97 105 106 
3 105 97 81 
3 80 105 81 
3 105 80 104 
3 100 93 94 
3 93 100 101 
3 101 77 93 
3 77 101 79 
3 102 79 101 
3 103 79 102 
3 79 103 78 
3 103 92 78 
3 92 103 91 
3 103 80 91 
3 80 103 104 
3 92 71 72 
3 71 92 55 
3 71 55 54 
3 84 31 83 
3 31 84 30 
3 94 99 100 
3 99 94 96 
3 95 99 96 
3 99 95 98 
3 82 98 95 
3 98 82 83 
3 107 109 108 
3 109 107 110 
3 107 111 110 
3 111 107 112 
3 113 115 114 
3 113 116 115 
3 113 117 116 
3 113 118 117 
3 113 119 118 
3 113 120 119 
3 113 121 120 
3 113 114 121 
3 112 122 111 
3 123 125 124 
3 125 123 126 
3 124 127 123 
3 127 124 128 
3 129 123 127 
3 123 129 126 
3 125 129 130 
3 128 125 130 
3 125 128 124 
3 131 133 132 
3 133 131 134 
3 135 131 136 
3 131 135 134 
3 136 137 135 
3 137 136 138 
3 138 133 137 
3 133 138 132 
3 133 135 137 
3 135 133 134 
3 139 50 39 
3 40 139 39 
3 139 40 60 
3 139 60 63 
3 66 139 63 
3 139 66 67 
3 57 139 67 
3 139 57 52 
3 139 52 45 
3 139 45 46 
3 49 139 46 
3 139 49 50 
3 74 77 79 
3 77 74 69 
3 56 71 54 
3 71 56 70 
3 108 140 114 
3 115 108 114 
3 108 115 107 
3 112 107 115 
3 141 142 140 
3 108 141 140 
3 141 108 109 
3 143 144 142 
3 144 143 145 
3 145 146 144 
3 146 145 147 
3 147 148 146 
3 148 147 122 
3 122 112 148 
3 142 141 143 
3 142 144 119 
3 146 119 144 
3 119 146 118 
3 117 118 146 
3 129 125 126 
